<?xml version="1.0" standalone="no"?>
<!DOCTYPE svg PUBLIC "-//W3C//DTD SVG 20010904//EN"
 "http://www.w3.org/TR/2001/REC-SVG-20010904/DTD/svg10.dtd">
<svg version="1.0" xmlns="http://www.w3.org/2000/svg"
 width="1307.569205pt" height="1338.056270pt" viewBox="0 0 1307.569205 1338.056270"
 preserveAspectRatio="xMidYMid meet">

<g transform="translate(-350.273122,1663.957293) scale(0.100000,-0.100000)"
fill="#000000" stroke="none">
<path d="M9699 16620 c-65 -34 -110 -113 -158 -276 -50 -168 -81 -480 -81
-814 0 -140 -9 -194 -33 -188 -7 2 -62 57 -123 123 -150 162 -229 235 -365
337 -138 104 -249 174 -378 237 -445 221 -1001 226 -1218 11 -52 -52 -93 -120
-93 -156 0 -11 6 -29 14 -40 14 -18 29 -19 268 -19 265 0 270 -1 433 -52 147
-47 409 -182 565 -291 79 -56 353 -328 347 -345 -2 -8 -36 -14 -98 -18 -52 -3
-116 -11 -144 -19 -68 -17 -203 -82 -289 -138 -92 -60 -284 -254 -364 -368
-34 -49 -86 -123 -115 -164 -29 -41 -57 -75 -63 -75 -38 0 -18 431 31 660 8
39 24 104 36 145 12 41 22 106 23 143 1 61 -2 71 -23 88 -30 25 -91 25 -140
-1 -67 -34 -158 -144 -211 -255 -50 -106 -64 -150 -80 -256 -13 -88 -13 -329
0 -404 11 -67 13 -145 4 -169 -10 -25 -27 -19 -100 36 -153 114 -370 243 -499
295 -158 64 -319 90 -460 73 -145 -16 -218 -44 -280 -106 -29 -28 -35 -42 -35
-76 0 -61 46 -100 142 -122 40 -10 102 -24 138 -32 228 -53 648 -256 845 -407
113 -87 92 -110 -70 -74 -249 55 -364 76 -465 86 -63 6 -133 13 -155 16 -60 6
-239 -13 -332 -36 -293 -70 -573 -296 -573 -462 0 -34 6 -49 28 -70 40 -38 93
-36 260 12 251 72 358 89 582 97 254 9 437 -11 490 -54 23 -18 19 -52 -6 -52
-17 0 -213 -102 -279 -146 -290 -191 -505 -568 -505 -886 0 -97 1 -100 29
-129 67 -67 130 -24 374 258 159 183 375 364 529 443 63 32 111 50 127 48 26
-3 26 -5 37 -118 15 -154 28 -221 71 -350 57 -175 202 -355 337 -420 71 -33
111 -38 143 -15 42 29 40 90 -6 258 -79 287 -8 801 112 815 35 4 125 -67 282
-223 543 -540 895 -1095 1079 -1704 21 -69 21 -140 1 -147 -21 -8 -91 45 -225
170 -88 82 -167 143 -239 184 -62 35 -71 37 -151 37 -75 0 -91 -4 -139 -30
-123 -68 -188 -172 -261 -420 -188 -634 -273 -861 -481 -1275 -110 -218 -256
-472 -294 -509 -15 -15 -19 -13 -47 19 -16 19 -45 59 -64 88 -75 115 -215 300
-271 357 -70 72 -171 142 -218 151 -70 13 -152 -57 -245 -210 -83 -138 -171
-345 -295 -696 -43 -123 -127 -345 -147 -390 -26 -58 -65 -110 -83 -110 -8 0
-28 26 -44 58 -46 90 -87 139 -143 172 -122 70 -207 22 -340 -192 -104 -168
-170 -306 -235 -497 -56 -164 -57 -166 -109 -191 -71 -33 -317 -113 -524 -170
-19 -5 -66 -17 -105 -25 -191 -43 -221 -64 -294 -205 -75 -144 -148 -198 -407
-304 -215 -87 -316 -140 -362 -190 -69 -75 -79 -180 -23 -236 l26 -27 2096 -6
c1252 -4 2224 -2 2412 3 354 11 6922 6 7844 -6 622 -8 620 -8 648 47 31 60 5
151 -60 208 -43 38 -240 137 -392 196 -183 73 -193 80 -258 180 -56 89 -103
118 -270 169 -332 102 -619 234 -880 404 -243 159 -414 294 -579 458 -220 219
-389 426 -583 714 -165 245 -217 310 -280 347 -59 34 -119 35 -188 3 -58 -28
-187 -153 -349 -340 -145 -167 -213 -240 -223 -240 -18 0 -124 112 -194 205
-151 200 -326 460 -406 605 -11 19 -35 62 -53 95 -18 33 -44 77 -57 97 -12 21
-23 41 -23 44 0 4 -11 22 -25 40 -35 46 -32 82 19 236 84 255 212 527 330 698
296 431 583 749 1061 1174 55 49 144 130 199 180 60 56 107 91 120 91 18 0 25
-12 45 -80 21 -71 23 -102 25 -275 1 -260 -15 -332 -124 -551 -72 -143 -85
-204 -50 -237 27 -25 86 -36 145 -28 90 14 263 167 346 306 66 113 95 201 124
390 16 98 28 140 43 140 18 0 138 -129 251 -270 147 -183 202 -259 282 -389
35 -57 83 -126 107 -152 74 -82 153 -88 205 -15 19 27 22 43 21 131 -2 247
-140 563 -337 770 -49 51 -99 126 -93 140 7 18 77 20 127 4 123 -41 405 -147
474 -179 205 -95 281 -108 334 -56 75 75 -20 232 -244 402 -111 85 -178 125
-265 161 -185 76 -238 86 -494 88 -182 1 -211 4 -220 18 -28 44 127 134 319
186 94 26 254 43 448 49 l208 7 40 42 c27 29 39 51 39 71 0 31 -37 93 -73 123
-33 27 -118 66 -189 86 -90 25 -349 22 -468 -5 -87 -20 -288 -88 -304 -103 -6
-5 -21 -9 -34 -9 -24 0 -24 1 -19 83 2 45 10 113 17 151 8 47 11 142 7 295 -4
193 -7 237 -26 299 -52 177 -142 282 -243 282 -42 0 -85 -26 -104 -62 -17 -34
-17 -54 2 -463 6 -138 -15 -421 -37 -483 -19 -54 -40 -37 -77 63 -57 154 -63
168 -108 260 -58 119 -80 157 -139 240 -133 187 -314 316 -502 359 -136 30
-234 17 -290 -39 -58 -58 -46 -78 137 -230 187 -154 353 -342 420 -475 48 -96
80 -198 80 -255 0 -30 -4 -56 -9 -59 -5 -4 -21 9 -36 26 -15 18 -81 89 -148
157 -295 299 -448 373 -777 375 -148 1 -172 -1 -232 -22 -108 -38 -156 -90
-144 -158 9 -46 51 -77 132 -98 261 -68 331 -97 494 -204 117 -77 130 -87 130
-110 0 -17 -60 -42 -101 -42 -45 0 -273 -77 -357 -121 -127 -67 -224 -162
-238 -235 -15 -83 25 -113 128 -96 186 32 248 37 448 37 118 0 262 -6 320 -13
58 -7 148 -18 200 -24 152 -18 165 -29 110 -98 -31 -39 -95 -93 -391 -328
-355 -283 -620 -545 -844 -837 -279 -363 -389 -562 -498 -894 -24 -73 -51
-137 -59 -142 -31 -17 -176 48 -196 88 -5 10 -12 124 -16 253 -5 220 -13 293
-45 406 -24 89 -77 135 -137 120 -40 -10 -135 -110 -239 -252 -144 -196 -176
-237 -229 -291 -40 -42 -57 -53 -82 -53 -49 0 -60 18 -67 114 -6 73 -23 156
-57 281 -4 17 -22 71 -39 120 -17 50 -54 155 -80 235 -27 80 -68 197 -91 260
-61 171 -89 249 -109 310 -33 97 -90 283 -111 360 -11 41 -27 100 -36 130 -9
30 -22 80 -29 110 -7 30 -22 91 -33 135 -79 309 -122 542 -161 870 -36 299
-41 818 -9 851 3 2 28 7 55 10 40 5 58 2 100 -19 120 -61 302 -256 470 -504
117 -172 139 -196 199 -219 55 -21 106 -9 159 37 51 45 60 83 57 242 -3 160
-2 160 86 132 93 -29 201 -85 337 -176 191 -127 255 -144 319 -84 85 78 -46
352 -283 592 -158 160 -356 274 -606 348 -73 22 -85 31 -85 60 0 63 168 142
585 275 48 15 223 58 305 74 135 27 270 38 580 46 178 5 321 13 343 19 49 16
71 50 64 101 -15 112 -199 223 -467 282 -82 19 -129 22 -340 22 -264 0 -338
-9 -545 -71 -229 -68 -411 -152 -598 -277 -113 -76 -142 -87 -165 -64 -23 23
-12 55 45 124 120 146 337 344 538 491 99 71 347 233 359 233 12 0 120 71 151
99 73 66 80 123 22 178 -46 44 -95 57 -191 50 -175 -11 -466 -142 -726 -327
-133 -94 -171 -129 -370 -332 -96 -98 -181 -178 -187 -178 -7 0 -15 11 -19 25
-8 30 29 568 56 819 6 59 10 158 8 218 l-3 110 -37 34 c-31 28 -45 34 -80 34
-24 -1 -59 -9 -79 -20z m-384 -1898 c127 -34 195 -83 195 -142 0 -15 -9 -35
-20 -45 -23 -21 -35 -19 -167 29 -90 32 -206 42 -335 27 -136 -15 -186 -29
-316 -87 -29 -13 -55 -24 -57 -24 -13 0 -149 -90 -206 -136 -37 -30 -117 -115
-178 -188 -109 -130 -133 -152 -152 -140 -51 31 92 270 249 414 174 160 411
283 597 310 92 14 309 3 390 -18z m3 -547 c2 -55 -2 -169 -7 -253 -8 -110 -8
-203 0 -327 7 -95 9 -181 6 -190 -6 -13 -19 -7 -79 33 -158 107 -198 120 -198
69 0 -14 -7 -30 -15 -37 -8 -7 -15 -20 -15 -30 0 -10 -8 -28 -18 -40 -15 -18
-29 -23 -73 -23 -54 -1 -88 14 -324 139 l-30 16 24 19 c20 16 40 19 146 19
121 0 123 0 194 -37 79 -39 97 -36 84 17 -14 59 -83 124 -234 218 -65 41 -95
66 -97 81 -6 37 101 135 324 297 36 26 205 113 244 125 61 19 65 13 68 -96z
m16 -874 c5 -8 15 -80 36 -281 6 -52 15 -117 20 -145 5 -27 17 -93 26 -145 38
-227 75 -393 126 -570 16 -58 33 -118 38 -135 21 -78 42 -151 80 -275 71 -231
87 -283 115 -365 49 -148 116 -388 159 -569 19 -79 11 -99 -25 -68 -13 11 -42
36 -65 54 -92 76 -104 99 -154 283 -4 17 -22 84 -40 149 -87 328 -153 501
-295 781 -153 300 -273 475 -515 750 -19 22 -131 138 -248 257 -148 150 -213
223 -210 235 5 27 62 22 218 -22 93 -26 157 -38 206 -39 64 -1 79 3 156 42 71
34 96 42 145 42 32 1 87 7 123 14 82 17 98 18 104 7z m-616 -2099 c10 -10 29
-40 41 -66 l23 -47 -11 -317 c-24 -665 -11 -840 75 -1019 56 -117 132 -159
235 -129 128 38 245 149 299 285 45 115 17 347 -66 541 -70 164 -89 264 -59
307 19 27 98 58 119 46 8 -4 93 -85 188 -178 291 -286 459 -406 748 -533 183
-80 362 -111 703 -119 224 -6 230 -6 258 -30 16 -14 29 -29 29 -35 0 -5 29
-67 64 -138 215 -424 589 -965 941 -1360 207 -231 365 -393 486 -497 163 -140
469 -358 669 -476 123 -73 159 -101 147 -114 -10 -9 -546 16 -566 26 -9 5 -54
50 -100 100 -45 50 -149 148 -229 218 -81 70 -172 151 -203 180 -30 29 -80 72
-110 94 -98 74 -152 86 -196 43 -24 -24 -25 -30 -21 -107 6 -113 37 -170 217
-410 58 -76 71 -101 62 -110 -8 -8 -52 -11 -147 -10 -137 3 -174 11 -204 49
-8 9 -56 50 -107 91 -94 75 -273 262 -374 388 -84 105 -215 300 -323 481 -105
176 -153 233 -215 254 -35 11 -46 11 -85 -4 -53 -20 -95 -66 -97 -104 -7 -130
7 -175 128 -421 104 -209 217 -388 335 -528 97 -116 152 -198 145 -217 -5 -13
-25 -16 -107 -16 -90 0 -258 13 -316 25 -32 7 -86 53 -253 218 -225 222 -351
375 -536 652 -22 33 -69 89 -105 126 -75 76 -125 96 -213 86 -134 -16 -165
-111 -154 -472 7 -231 30 -333 107 -487 28 -55 49 -107 46 -115 -5 -12 -41
-14 -225 -11 l-219 3 -69 65 c-205 196 -266 280 -427 595 -37 72 -81 144 -98
162 -83 86 -173 28 -234 -148 -24 -69 -27 -307 -5 -384 23 -80 59 -155 101
-212 41 -53 50 -82 28 -84 -58 -4 -1614 4 -1624 8 -8 3 -17 16 -20 30 -10 38
21 71 142 146 390 244 837 689 1108 1104 46 70 92 146 103 168 33 65 73 184
73 216 0 66 -53 119 -120 119 -37 0 -96 -29 -167 -83 l-53 -40 -59 57 c-54 51
-64 56 -104 56 -60 0 -101 -31 -272 -204 -145 -148 -202 -196 -230 -196 -26 0
-85 31 -85 44 0 6 32 50 70 96 39 47 92 117 118 155 25 39 75 111 110 160 165
234 367 626 468 910 35 99 107 323 138 435 32 109 84 283 96 320 5 14 23 72
41 130 47 155 93 250 121 250 4 0 16 -8 26 -18z m4448 -2250 c12 -15 65 -92
119 -172 351 -520 747 -926 1150 -1179 72 -45 207 -120 300 -167 195 -98 265
-140 265 -160 0 -22 -63 -19 -342 15 -332 41 -790 262 -1233 595 -88 66 -162
122 -165 126 -3 3 -75 67 -160 141 -173 152 -364 345 -375 379 -6 19 7 37 82
114 50 50 118 127 153 171 136 170 165 190 206 137z m-6051 -867 c32 -31 31
-53 -4 -102 -36 -50 -299 -249 -640 -484 -36 -25 -101 -71 -145 -102 l-79 -57
-211 2 c-171 2 -211 6 -211 17 0 15 3 17 305 164 281 137 494 267 700 426 233
179 240 182 285 136z"/>
<path d="M8285 6460 c-71 -4 -161 -13 -200 -19 -38 -6 -92 -11 -118 -11 -47 0
-107 -22 -107 -39 0 -10 94 -47 190 -76 30 -9 64 -20 75 -25 60 -26 463 -160
535 -179 289 -73 603 -48 1051 83 58 18 129 54 129 66 0 17 -83 51 -172 70
-73 15 -191 41 -233 51 -74 17 -199 39 -334 59 -154 23 -598 34 -816 20z"/>
<path d="M14435 6454 c-215 -16 -299 -28 -525 -75 -83 -17 -344 -110 -421
-150 -82 -43 -139 -93 -123 -108 5 -6 38 -6 84 -1 513 63 641 74 845 73 181
-1 392 -19 560 -48 50 -9 115 -20 145 -25 30 -5 89 -16 130 -24 41 -8 103 -20
137 -26 34 -7 70 -18 79 -25 16 -11 15 -16 -18 -61 -47 -63 -95 -109 -243
-233 -134 -112 -141 -115 -226 -77 -170 75 -435 155 -637 193 -110 20 -471 23
-582 5 -332 -57 -582 -137 -752 -241 -162 -100 -209 -156 -151 -178 25 -10
146 14 263 51 326 106 601 144 893 126 202 -13 437 -57 572 -108 153 -58 185
-74 185 -94 0 -12 -84 -3 -155 17 -196 54 -300 67 -605 72 -277 5 -373 -4
-578 -53 -121 -30 -257 -85 -257 -105 0 -21 133 -74 285 -113 274 -71 512 -83
795 -41 194 29 252 44 350 91 81 39 75 38 75 20 0 -17 -71 -83 -180 -167 -171
-132 -744 -509 -833 -547 -42 -18 -59 -15 -139 26 l-73 37 -125 -1 c-119 0
-129 -2 -200 -33 -41 -18 -93 -39 -115 -46 -22 -7 -56 -20 -75 -29 -78 -35
-371 -91 -610 -117 -171 -18 -456 -4 -640 32 -67 13 -236 57 -270 71 -14 5
-70 25 -125 43 -55 19 -140 48 -189 65 -282 97 -593 108 -911 30 -296 -73
-435 -117 -435 -139 0 -22 5 -24 305 -96 83 -20 296 -85 475 -145 351 -117
424 -140 570 -177 347 -87 692 -105 1109 -58 122 14 226 23 231 20 6 -4 10
-17 10 -30 0 -20 -7 -26 -42 -36 -24 -6 -52 -15 -63 -19 -45 -19 -268 -91
-341 -110 -137 -37 -321 -72 -497 -95 -213 -28 -561 -17 -757 25 -124 27 -323
96 -478 166 -29 13 -55 24 -57 24 -2 0 -48 21 -102 46 -115 54 -255 107 -333
125 -35 9 -118 14 -230 13 -186 0 -189 0 -490 -79 -530 -138 -775 -159 -1035
-88 -167 45 -417 143 -655 256 -63 30 -146 69 -185 87 -231 107 -282 131 -441
206 -146 70 -449 259 -669 419 -216 156 -222 165 -117 164 72 0 181 -26 327
-78 206 -73 218 -73 430 6 88 33 187 68 220 78 33 9 80 23 105 30 109 32 358
84 500 106 251 37 294 54 234 94 -36 24 -106 39 -519 117 -50 9 -169 13 -410
13 l-340 -1 -180 -38 c-99 -21 -200 -42 -225 -47 -93 -18 -309 -39 -406 -39
l-102 0 -58 39 c-91 61 -438 355 -542 458 -59 59 -92 100 -90 111 5 26 45 40
148 52 52 5 138 16 190 22 62 8 267 12 590 13 337 0 527 4 595 13 55 7 140 16
188 21 102 10 120 20 91 52 -41 45 -176 97 -399 154 -290 74 -434 90 -790 90
-387 0 -501 -18 -851 -135 -20 -6 -41 -7 -55 -1 -41 15 -147 23 -210 16 -47
-6 -69 -14 -93 -35 -29 -26 -31 -33 -31 -92 0 -55 5 -71 33 -114 36 -57 487
-506 687 -685 72 -64 184 -160 250 -213 66 -54 129 -106 140 -115 284 -232
791 -582 1060 -731 33 -18 101 -57 150 -85 186 -107 540 -288 662 -339 35 -14
87 -37 117 -51 30 -14 57 -25 60 -25 3 0 29 -11 58 -24 124 -55 580 -215 733
-256 335 -92 380 -103 535 -135 157 -32 243 -47 500 -85 83 -12 333 -36 520
-50 521 -38 1274 22 1870 150 375 80 956 263 1308 411 175 74 609 285 733 357
47 27 112 64 145 82 64 36 319 197 504 319 485 318 929 688 1381 1149 298 305
329 344 329 416 0 108 -84 155 -239 134 l-86 -11 -135 46 c-218 75 -275 88
-495 112 -141 15 -458 26 -550 19z"/>
<path d="M11000 6354 c-289 -16 -562 -73 -790 -165 -183 -74 -318 -147 -343
-187 -5 -7 -26 -24 -48 -38 -22 -14 -39 -30 -36 -37 3 -11 23 -15 162 -31 59
-7 158 7 230 32 140 50 323 92 550 128 156 25 563 25 730 0 259 -38 493 -103
705 -198 30 -13 74 -33 98 -43 23 -10 42 -23 42 -28 0 -10 -14 -7 -95 17 -236
70 -426 109 -730 148 -141 18 -562 16 -680 -4 -165 -28 -404 -102 -397 -124 3
-9 50 -29 107 -44 17 -5 73 -20 125 -33 52 -14 120 -32 150 -41 331 -96 623
-113 1155 -65 127 11 381 43 477 59 114 20 297 87 473 175 59 30 80 45 80 60
0 17 -13 22 -115 37 -262 41 -334 59 -555 143 -301 114 -369 135 -655 194
-148 31 -476 54 -640 45z"/>
<path d="M6741 6069 c-137 -9 -218 -20 -361 -51 -52 -11 -113 -24 -135 -29
-22 -4 -78 -22 -125 -39 -47 -17 -96 -35 -110 -40 -107 -35 -219 -113 -207
-143 5 -14 21 -17 99 -16 51 0 116 4 143 8 129 21 339 50 427 60 125 14 561
14 686 0 270 -30 540 -83 767 -150 164 -48 228 -51 318 -13 102 43 132 85 85
119 -28 19 -156 69 -258 100 -41 13 -113 35 -160 50 -427 133 -742 171 -1169
144z"/>
<path d="M9155 5659 c-191 -22 -311 -50 -448 -105 -108 -43 -372 -175 -405
-204 -38 -31 -25 -53 43 -72 96 -27 159 -23 271 17 128 44 273 81 404 102 133
21 403 23 525 4 82 -12 276 -58 350 -82 17 -5 71 -22 120 -38 109 -35 195 -73
195 -85 0 -11 -48 -3 -180 29 -338 82 -389 89 -635 88 -228 0 -301 -9 -475
-55 -76 -20 -215 -73 -237 -91 -18 -14 -16 -34 5 -40 9 -3 37 -13 62 -22 52
-20 105 -33 245 -65 55 -12 145 -33 200 -45 199 -46 237 -50 425 -49 185 0
271 10 490 54 121 24 238 45 365 65 205 33 232 38 300 55 92 24 138 41 214 79
68 35 75 55 20 59 -46 3 -138 20 -229 43 -74 19 -105 29 -165 54 -16 7 -64 25
-105 40 -41 15 -84 31 -95 35 -61 23 -112 43 -130 51 -60 26 -194 74 -250 89
-16 4 -64 17 -105 28 -239 64 -545 88 -775 61z"/>
<path d="M11785 5249 c-209 -32 -315 -62 -492 -143 -136 -61 -226 -120 -221
-145 6 -26 133 -19 428 26 148 23 539 22 670 -1 184 -32 421 -103 452 -134 28
-28 -9 -31 -87 -8 -44 13 -107 29 -140 36 -33 6 -79 16 -103 21 -145 32 -533
34 -707 4 -97 -17 -277 -63 -289 -75 -11 -11 21 -27 117 -56 91 -28 125 -35
312 -64 212 -32 482 -25 730 20 81 15 178 40 190 50 6 4 46 17 90 28 193 50
246 64 338 94 69 22 97 36 97 47 0 51 -422 196 -770 265 -223 44 -462 58 -615
35z"/>
<path d="M7585 5005 c-224 -26 -358 -62 -579 -154 -139 -59 -206 -105 -206
-143 0 -43 79 -47 255 -14 171 32 204 37 315 51 214 27 488 15 690 -30 41 -10
91 -21 110 -25 94 -21 259 -75 393 -129 40 -16 80 -31 90 -35 27 -9 20 -26
-11 -26 -15 0 -59 9 -97 20 -366 107 -647 143 -945 122 -91 -6 -181 -16 -200
-21 -19 -5 -55 -15 -80 -21 -68 -18 -130 -51 -130 -71 0 -18 89 -60 165 -78
22 -5 69 -17 105 -26 314 -79 691 -116 871 -86 30 5 88 14 129 21 41 6 120 22
175 35 55 13 143 33 196 44 113 23 242 63 322 99 77 35 76 53 -8 92 -35 16
-66 30 -69 30 -2 0 -37 15 -78 34 -91 42 -182 81 -239 101 -24 9 -89 32 -144
51 -288 104 -452 144 -666 163 -141 13 -222 12 -364 -4z"/>
</g>
</svg>
